<svg xmlns="http://www.w3.org/2000/svg" viewBox="0 0 96 96"><defs><radialGradient id="lg"><stop offset="0" stop-color="#F5D76E"/><stop offset="1" stop-color="#F5D76E" stop-opacity="0"/></radialGradient><linearGradient id="au" x1="0" y1="0" x2="0" y2="1"><stop offset="0" stop-color="#FFE9A0"/><stop offset=".5" stop-color="#F0C64A"/><stop offset="1" stop-color="#C9922A"/></linearGradient><linearGradient id="pu" x1="0" y1="0" x2="0" y2="1"><stop offset="0" stop-color="#E9D5FF"/><stop offset=".5" stop-color="#A855F7"/><stop offset="1" stop-color="#6B21A8"/></linearGradient><linearGradient id="cy" x1="0" y1="0" x2="0" y2="1"><stop offset="0" stop-color="#A5F3FC"/><stop offset="1" stop-color="#0891B2"/></linearGradient><linearGradient id="pk" x1="0" y1="0" x2="0" y2="1"><stop offset="0" stop-color="#FBCFE8"/><stop offset="1" stop-color="#DB2777"/></linearGradient><linearGradient id="gr" x1="0" y1="0" x2="0" y2="1"><stop offset="0" stop-color="#BBF7D0"/><stop offset="1" stop-color="#15803D"/></linearGradient><linearGradient id="sl" x1="0" y1="0" x2="0" y2="1"><stop offset="0" stop-color="#F1F5F9"/><stop offset="1" stop-color="#94A3B8"/></linearGradient><linearGradient id="nv" x1="0" y1="0" x2="0" y2="1"><stop offset="0" stop-color="#334155"/><stop offset="1" stop-color="#0F172A"/></linearGradient></defs><path d="M34 16 14 28l8 16 10-6v42h32V38l10 6 8-16L62 16a14 9 0 0 1-28 0Z" fill="url(#cy)" stroke="#155E75" stroke-width="3" stroke-linejoin="round"/><rect x="40" y="44" width="6" height="6" fill="#DB2777"/><rect x="52" y="44" width="6" height="6" fill="#DB2777"/><rect x="40" y="50" width="18" height="6" fill="#DB2777"/><rect x="46" y="56" width="6" height="6" fill="#DB2777"/></svg>