<svg xmlns="http://www.w3.org/2000/svg" viewBox="0 0 96 96"><defs><radialGradient id="lg"><stop offset="0" stop-color="#F5D76E"/><stop offset="1" stop-color="#F5D76E" stop-opacity="0"/></radialGradient><linearGradient id="au" x1="0" y1="0" x2="0" y2="1"><stop offset="0" stop-color="#FFE9A0"/><stop offset=".5" stop-color="#F0C64A"/><stop offset="1" stop-color="#C9922A"/></linearGradient><linearGradient id="pu" x1="0" y1="0" x2="0" y2="1"><stop offset="0" stop-color="#E9D5FF"/><stop offset=".5" stop-color="#A855F7"/><stop offset="1" stop-color="#6B21A8"/></linearGradient><linearGradient id="cy" x1="0" y1="0" x2="0" y2="1"><stop offset="0" stop-color="#A5F3FC"/><stop offset="1" stop-color="#0891B2"/></linearGradient><linearGradient id="pk" x1="0" y1="0" x2="0" y2="1"><stop offset="0" stop-color="#FBCFE8"/><stop offset="1" stop-color="#DB2777"/></linearGradient><linearGradient id="gr" x1="0" y1="0" x2="0" y2="1"><stop offset="0" stop-color="#BBF7D0"/><stop offset="1" stop-color="#15803D"/></linearGradient><linearGradient id="sl" x1="0" y1="0" x2="0" y2="1"><stop offset="0" stop-color="#F1F5F9"/><stop offset="1" stop-color="#94A3B8"/></linearGradient><linearGradient id="nv" x1="0" y1="0" x2="0" y2="1"><stop offset="0" stop-color="#334155"/><stop offset="1" stop-color="#0F172A"/></linearGradient></defs><rect x="26" y="8" width="44" height="80" rx="9" fill="url(#sl)" stroke="#475569" stroke-width="3"/><rect x="32" y="16" width="32" height="26" rx="3" fill="#14532D"/><rect x="35" y="19" width="26" height="20" fill="#86EFAC"/><path d="M40 26h6v6h4v-6h2" stroke="#14532D" stroke-width="2.5" fill="none"/><rect x="36" y="52" width="6" height="18" rx="2" fill="#334155"/><rect x="30" y="58" width="18" height="6" rx="2" fill="#334155"/><circle cx="58" cy="64" r="4.5" fill="url(#pk)" stroke="#9D174D" stroke-width="2"/><circle cx="66" cy="56" r="4.5" fill="url(#pk)" stroke="#9D174D" stroke-width="2"/><path d="M38 78h20" stroke="#94A3B8" stroke-width="3" stroke-linecap="round"/></svg>