<svg xmlns="http://www.w3.org/2000/svg" viewBox="0 0 96 96"><defs><radialGradient id="lg"><stop offset="0" stop-color="#F5D76E"/><stop offset="1" stop-color="#F5D76E" stop-opacity="0"/></radialGradient><linearGradient id="au" x1="0" y1="0" x2="0" y2="1"><stop offset="0" stop-color="#FFE9A0"/><stop offset=".5" stop-color="#F0C64A"/><stop offset="1" stop-color="#C9922A"/></linearGradient><linearGradient id="pu" x1="0" y1="0" x2="0" y2="1"><stop offset="0" stop-color="#E9D5FF"/><stop offset=".5" stop-color="#A855F7"/><stop offset="1" stop-color="#6B21A8"/></linearGradient><linearGradient id="cy" x1="0" y1="0" x2="0" y2="1"><stop offset="0" stop-color="#A5F3FC"/><stop offset="1" stop-color="#0891B2"/></linearGradient><linearGradient id="pk" x1="0" y1="0" x2="0" y2="1"><stop offset="0" stop-color="#FBCFE8"/><stop offset="1" stop-color="#DB2777"/></linearGradient><linearGradient id="gr" x1="0" y1="0" x2="0" y2="1"><stop offset="0" stop-color="#BBF7D0"/><stop offset="1" stop-color="#15803D"/></linearGradient><linearGradient id="sl" x1="0" y1="0" x2="0" y2="1"><stop offset="0" stop-color="#F1F5F9"/><stop offset="1" stop-color="#94A3B8"/></linearGradient><linearGradient id="nv" x1="0" y1="0" x2="0" y2="1"><stop offset="0" stop-color="#334155"/><stop offset="1" stop-color="#0F172A"/></linearGradient></defs><circle cx="48" cy="48" r="40" fill="url(#lg)" opacity=".35"><animate attributeName="opacity" values=".2;.5;.2" dur="2.4s" repeatCount="indefinite"/></circle><path d="M20 62c-6-16 6-38 28-40l4-8 8 10c10 4 16 14 16 24l8 6-10 4c-4 14-18 22-32 20l-10 6-2-10Z" fill="url(#gr)" stroke="#14532D" stroke-width="3" stroke-linejoin="round"/><rect x="56" y="34" width="7" height="7" fill="#0F172A"/><path d="M30 42h8v8h-8zM42 50h8v8h-8z" fill="#166534" opacity=".6"/><path d="M66 60l14 8-6-14" fill="#F97316" stroke="#C2410C" stroke-width="2" stroke-linejoin="round"/><path d="M28 24l6 10M40 18l2 10" stroke="#14532D" stroke-width="3" stroke-linecap="round"/></svg>