<svg xmlns="http://www.w3.org/2000/svg" viewBox="0 0 96 96"><defs><radialGradient id="lg"><stop offset="0" stop-color="#F5D76E"/><stop offset="1" stop-color="#F5D76E" stop-opacity="0"/></radialGradient><linearGradient id="au" x1="0" y1="0" x2="0" y2="1"><stop offset="0" stop-color="#FFE9A0"/><stop offset=".5" stop-color="#F0C64A"/><stop offset="1" stop-color="#C9922A"/></linearGradient><linearGradient id="pu" x1="0" y1="0" x2="0" y2="1"><stop offset="0" stop-color="#E9D5FF"/><stop offset=".5" stop-color="#A855F7"/><stop offset="1" stop-color="#6B21A8"/></linearGradient><linearGradient id="cy" x1="0" y1="0" x2="0" y2="1"><stop offset="0" stop-color="#A5F3FC"/><stop offset="1" stop-color="#0891B2"/></linearGradient><linearGradient id="pk" x1="0" y1="0" x2="0" y2="1"><stop offset="0" stop-color="#FBCFE8"/><stop offset="1" stop-color="#DB2777"/></linearGradient><linearGradient id="gr" x1="0" y1="0" x2="0" y2="1"><stop offset="0" stop-color="#BBF7D0"/><stop offset="1" stop-color="#15803D"/></linearGradient><linearGradient id="sl" x1="0" y1="0" x2="0" y2="1"><stop offset="0" stop-color="#F1F5F9"/><stop offset="1" stop-color="#94A3B8"/></linearGradient><linearGradient id="nv" x1="0" y1="0" x2="0" y2="1"><stop offset="0" stop-color="#334155"/><stop offset="1" stop-color="#0F172A"/></linearGradient></defs><path d="M48 6c11 2 15 9 13 20H35C33 15 37 8 48 6Z" fill="url(#pk)" stroke="#9D174D" stroke-width="2.5" stroke-linejoin="round"/><path d="M22 52a26 26 0 0 1 52 0v26H22Z" fill="url(#sl)" stroke="#475569" stroke-width="3"/><rect x="28" y="48" width="40" height="7" rx="3.5" fill="#0F172A"/><path d="M48 55v23" stroke="#475569" stroke-width="3"/><circle cx="38" cy="66" r="2" fill="#0F172A"/><circle cx="38" cy="72" r="2" fill="#0F172A"/><circle cx="58" cy="66" r="2" fill="#0F172A"/><circle cx="58" cy="72" r="2" fill="#0F172A"/></svg>