<svg xmlns="http://www.w3.org/2000/svg" viewBox="0 0 96 96"><defs><radialGradient id="lg"><stop offset="0" stop-color="#F5D76E"/><stop offset="1" stop-color="#F5D76E" stop-opacity="0"/></radialGradient><linearGradient id="au" x1="0" y1="0" x2="0" y2="1"><stop offset="0" stop-color="#FFE9A0"/><stop offset=".5" stop-color="#F0C64A"/><stop offset="1" stop-color="#C9922A"/></linearGradient><linearGradient id="pu" x1="0" y1="0" x2="0" y2="1"><stop offset="0" stop-color="#E9D5FF"/><stop offset=".5" stop-color="#A855F7"/><stop offset="1" stop-color="#6B21A8"/></linearGradient><linearGradient id="cy" x1="0" y1="0" x2="0" y2="1"><stop offset="0" stop-color="#A5F3FC"/><stop offset="1" stop-color="#0891B2"/></linearGradient><linearGradient id="pk" x1="0" y1="0" x2="0" y2="1"><stop offset="0" stop-color="#FBCFE8"/><stop offset="1" stop-color="#DB2777"/></linearGradient><linearGradient id="gr" x1="0" y1="0" x2="0" y2="1"><stop offset="0" stop-color="#BBF7D0"/><stop offset="1" stop-color="#15803D"/></linearGradient><linearGradient id="sl" x1="0" y1="0" x2="0" y2="1"><stop offset="0" stop-color="#F1F5F9"/><stop offset="1" stop-color="#94A3B8"/></linearGradient><linearGradient id="nv" x1="0" y1="0" x2="0" y2="1"><stop offset="0" stop-color="#334155"/><stop offset="1" stop-color="#0F172A"/></linearGradient></defs><circle cx="48" cy="48" r="40" fill="url(#lg)" opacity=".35"><animate attributeName="opacity" values=".2;.5;.2" dur="2.4s" repeatCount="indefinite"/></circle><circle cx="48" cy="48" r="36" fill="url(#pu)" stroke="#581C87" stroke-width="4"/><circle cx="48" cy="48" r="28" fill="none" stroke="#fff" stroke-width="2" opacity=".5"/><circle cx="48" cy="48" r="16" fill="none" stroke="#fff" stroke-width="3.5"/><path d="M32 48h32M48 32c8 8 8 24 0 32-8-8-8-24 0-32Z" stroke="#fff" stroke-width="3" fill="none"/><path d="M48 20 51 27l7 1-5 5 1 7-6-3-6 3 1-7-5-5 7-1Z" fill="url(#au)"/></svg>