<svg xmlns="http://www.w3.org/2000/svg" viewBox="0 0 96 96"><defs><radialGradient id="lg"><stop offset="0" stop-color="#F5D76E"/><stop offset="1" stop-color="#F5D76E" stop-opacity="0"/></radialGradient><linearGradient id="au" x1="0" y1="0" x2="0" y2="1"><stop offset="0" stop-color="#FFE9A0"/><stop offset=".5" stop-color="#F0C64A"/><stop offset="1" stop-color="#C9922A"/></linearGradient><linearGradient id="pu" x1="0" y1="0" x2="0" y2="1"><stop offset="0" stop-color="#E9D5FF"/><stop offset=".5" stop-color="#A855F7"/><stop offset="1" stop-color="#6B21A8"/></linearGradient><linearGradient id="cy" x1="0" y1="0" x2="0" y2="1"><stop offset="0" stop-color="#A5F3FC"/><stop offset="1" stop-color="#0891B2"/></linearGradient><linearGradient id="pk" x1="0" y1="0" x2="0" y2="1"><stop offset="0" stop-color="#FBCFE8"/><stop offset="1" stop-color="#DB2777"/></linearGradient><linearGradient id="gr" x1="0" y1="0" x2="0" y2="1"><stop offset="0" stop-color="#BBF7D0"/><stop offset="1" stop-color="#15803D"/></linearGradient><linearGradient id="sl" x1="0" y1="0" x2="0" y2="1"><stop offset="0" stop-color="#F1F5F9"/><stop offset="1" stop-color="#94A3B8"/></linearGradient><linearGradient id="nv" x1="0" y1="0" x2="0" y2="1"><stop offset="0" stop-color="#334155"/><stop offset="1" stop-color="#0F172A"/></linearGradient></defs><circle cx="48" cy="48" r="40" fill="url(#lg)" opacity=".35"><animate attributeName="opacity" values=".2;.5;.2" dur="2.4s" repeatCount="indefinite"/></circle><path d="M26 44C12 40 8 28 12 16c6 8 14 12 22 10Z" fill="url(#au)" stroke="#C2410C" stroke-width="2.5" stroke-linejoin="round"/><path d="M70 44c14-4 18-16 14-28-6 8-14 12-22 10Z" fill="url(#au)" stroke="#C2410C" stroke-width="2.5" stroke-linejoin="round"/><path d="M48 10c14 14 22 27 22 41a22 22 0 0 1-44 0c0-14 8-27 22-41Z" fill="url(#au)" stroke="#C2410C" stroke-width="3"/><path d="M48 34c7 8 11 14 11 21a11 11 0 0 1-22 0c0-7 4-13 11-21Z" fill="#F97316"/><circle cx="42" cy="56" r="2.8" fill="#0F172A"/><circle cx="54" cy="56" r="2.8" fill="#0F172A"/><path d="M45 63l3 4 3-4Z" fill="#C2410C"/></svg>