<svg xmlns="http://www.w3.org/2000/svg" viewBox="0 0 96 96"><defs><radialGradient id="lg"><stop offset="0" stop-color="#F5D76E"/><stop offset="1" stop-color="#F5D76E" stop-opacity="0"/></radialGradient><linearGradient id="au" x1="0" y1="0" x2="0" y2="1"><stop offset="0" stop-color="#FFE9A0"/><stop offset=".5" stop-color="#F0C64A"/><stop offset="1" stop-color="#C9922A"/></linearGradient><linearGradient id="pu" x1="0" y1="0" x2="0" y2="1"><stop offset="0" stop-color="#E9D5FF"/><stop offset=".5" stop-color="#A855F7"/><stop offset="1" stop-color="#6B21A8"/></linearGradient><linearGradient id="cy" x1="0" y1="0" x2="0" y2="1"><stop offset="0" stop-color="#A5F3FC"/><stop offset="1" stop-color="#0891B2"/></linearGradient><linearGradient id="pk" x1="0" y1="0" x2="0" y2="1"><stop offset="0" stop-color="#FBCFE8"/><stop offset="1" stop-color="#DB2777"/></linearGradient><linearGradient id="gr" x1="0" y1="0" x2="0" y2="1"><stop offset="0" stop-color="#BBF7D0"/><stop offset="1" stop-color="#15803D"/></linearGradient><linearGradient id="sl" x1="0" y1="0" x2="0" y2="1"><stop offset="0" stop-color="#F1F5F9"/><stop offset="1" stop-color="#94A3B8"/></linearGradient><linearGradient id="nv" x1="0" y1="0" x2="0" y2="1"><stop offset="0" stop-color="#334155"/><stop offset="1" stop-color="#0F172A"/></linearGradient></defs><rect x="28" y="78" width="40" height="8" rx="3" fill="url(#nv)"/><rect x="44" y="64" width="8" height="16" fill="#64748B"/><path d="M48 8c12 10 16 24 16 38l-6 12H38l-6-12c0-14 4-28 16-38Z" fill="url(#sl)" stroke="#475569" stroke-width="3" stroke-linejoin="round"/><circle cx="48" cy="34" r="8" fill="url(#cy)" stroke="#155E75" stroke-width="2.5"/><path d="M33 46 20 60l15-2Z" fill="url(#pk)" stroke="#9D174D" stroke-width="2.5" stroke-linejoin="round"/><path d="M63 46l13 14-15-2Z" fill="url(#pk)" stroke="#9D174D" stroke-width="2.5" stroke-linejoin="round"/><path d="M42 58l6 10 6-10" fill="none" stroke="#F97316" stroke-width="3.5" stroke-linecap="round"/></svg>