<svg xmlns="http://www.w3.org/2000/svg" viewBox="0 0 96 96"><defs><radialGradient id="lg"><stop offset="0" stop-color="#F5D76E"/><stop offset="1" stop-color="#F5D76E" stop-opacity="0"/></radialGradient><linearGradient id="au" x1="0" y1="0" x2="0" y2="1"><stop offset="0" stop-color="#FFE9A0"/><stop offset=".5" stop-color="#F0C64A"/><stop offset="1" stop-color="#C9922A"/></linearGradient><linearGradient id="pu" x1="0" y1="0" x2="0" y2="1"><stop offset="0" stop-color="#E9D5FF"/><stop offset=".5" stop-color="#A855F7"/><stop offset="1" stop-color="#6B21A8"/></linearGradient><linearGradient id="cy" x1="0" y1="0" x2="0" y2="1"><stop offset="0" stop-color="#A5F3FC"/><stop offset="1" stop-color="#0891B2"/></linearGradient><linearGradient id="pk" x1="0" y1="0" x2="0" y2="1"><stop offset="0" stop-color="#FBCFE8"/><stop offset="1" stop-color="#DB2777"/></linearGradient><linearGradient id="gr" x1="0" y1="0" x2="0" y2="1"><stop offset="0" stop-color="#BBF7D0"/><stop offset="1" stop-color="#15803D"/></linearGradient><linearGradient id="sl" x1="0" y1="0" x2="0" y2="1"><stop offset="0" stop-color="#F1F5F9"/><stop offset="1" stop-color="#94A3B8"/></linearGradient><linearGradient id="nv" x1="0" y1="0" x2="0" y2="1"><stop offset="0" stop-color="#334155"/><stop offset="1" stop-color="#0F172A"/></linearGradient></defs><path d="M20 58v-8a28 28 0 0 1 56 0v8" fill="none" stroke="#0F172A" stroke-width="8" stroke-linecap="round"/><rect x="12" y="52" width="18" height="28" rx="8" fill="url(#nv)" stroke="#020617" stroke-width="2.5"/><rect x="66" y="52" width="18" height="28" rx="8" fill="url(#nv)" stroke="#020617" stroke-width="2.5"/><rect x="17" y="58" width="8" height="16" rx="4" fill="url(#pk)"/><rect x="71" y="58" width="8" height="16" rx="4" fill="url(#pk)"/><path d="M22 80q5 10 17 10" stroke="#64748B" stroke-width="3.5" fill="none" stroke-linecap="round"/><circle cx="42" cy="90" r="4.5" fill="url(#pk)" stroke="#9D174D" stroke-width="2"/></svg>