<svg xmlns="http://www.w3.org/2000/svg" viewBox="0 0 96 96"><defs><radialGradient id="lg"><stop offset="0" stop-color="#F5D76E"/><stop offset="1" stop-color="#F5D76E" stop-opacity="0"/></radialGradient><linearGradient id="au" x1="0" y1="0" x2="0" y2="1"><stop offset="0" stop-color="#FFE9A0"/><stop offset=".5" stop-color="#F0C64A"/><stop offset="1" stop-color="#C9922A"/></linearGradient><linearGradient id="pu" x1="0" y1="0" x2="0" y2="1"><stop offset="0" stop-color="#E9D5FF"/><stop offset=".5" stop-color="#A855F7"/><stop offset="1" stop-color="#6B21A8"/></linearGradient><linearGradient id="cy" x1="0" y1="0" x2="0" y2="1"><stop offset="0" stop-color="#A5F3FC"/><stop offset="1" stop-color="#0891B2"/></linearGradient><linearGradient id="pk" x1="0" y1="0" x2="0" y2="1"><stop offset="0" stop-color="#FBCFE8"/><stop offset="1" stop-color="#DB2777"/></linearGradient><linearGradient id="gr" x1="0" y1="0" x2="0" y2="1"><stop offset="0" stop-color="#BBF7D0"/><stop offset="1" stop-color="#15803D"/></linearGradient><linearGradient id="sl" x1="0" y1="0" x2="0" y2="1"><stop offset="0" stop-color="#F1F5F9"/><stop offset="1" stop-color="#94A3B8"/></linearGradient><linearGradient id="nv" x1="0" y1="0" x2="0" y2="1"><stop offset="0" stop-color="#334155"/><stop offset="1" stop-color="#0F172A"/></linearGradient></defs><path d="M26 34 20 16l14 8Zm44 0 6-18-14 8Z" fill="url(#pk)" stroke="#9D174D" stroke-width="3" stroke-linejoin="round"/><circle cx="48" cy="52" r="30" fill="url(#pk)" stroke="#9D174D" stroke-width="3"/><circle cx="37" cy="46" r="4.5" fill="#0F172A"/><circle cx="59" cy="46" r="4.5" fill="#0F172A"/><path d="M44 58q4 4 8 0" stroke="#0F172A" stroke-width="3" fill="none" stroke-linecap="round"/><path d="M20 54h10M20 62h10M66 54h10M66 62h10" stroke="#9D174D" stroke-width="3" stroke-linecap="round"/><text x="48" y="76" text-anchor="middle" font-family="monospace" font-size="11" fill="#9D174D" font-weight="bold">&lt;/&gt;</text></svg>