<svg xmlns="http://www.w3.org/2000/svg" viewBox="0 0 96 96"><defs><radialGradient id="lg"><stop offset="0" stop-color="#F5D76E"/><stop offset="1" stop-color="#F5D76E" stop-opacity="0"/></radialGradient><linearGradient id="au" x1="0" y1="0" x2="0" y2="1"><stop offset="0" stop-color="#FFE9A0"/><stop offset=".5" stop-color="#F0C64A"/><stop offset="1" stop-color="#C9922A"/></linearGradient><linearGradient id="pu" x1="0" y1="0" x2="0" y2="1"><stop offset="0" stop-color="#E9D5FF"/><stop offset=".5" stop-color="#A855F7"/><stop offset="1" stop-color="#6B21A8"/></linearGradient><linearGradient id="cy" x1="0" y1="0" x2="0" y2="1"><stop offset="0" stop-color="#A5F3FC"/><stop offset="1" stop-color="#0891B2"/></linearGradient><linearGradient id="pk" x1="0" y1="0" x2="0" y2="1"><stop offset="0" stop-color="#FBCFE8"/><stop offset="1" stop-color="#DB2777"/></linearGradient><linearGradient id="gr" x1="0" y1="0" x2="0" y2="1"><stop offset="0" stop-color="#BBF7D0"/><stop offset="1" stop-color="#15803D"/></linearGradient><linearGradient id="sl" x1="0" y1="0" x2="0" y2="1"><stop offset="0" stop-color="#F1F5F9"/><stop offset="1" stop-color="#94A3B8"/></linearGradient><linearGradient id="nv" x1="0" y1="0" x2="0" y2="1"><stop offset="0" stop-color="#334155"/><stop offset="1" stop-color="#0F172A"/></linearGradient></defs><circle cx="48" cy="48" r="40" fill="url(#lg)" opacity=".35"><animate attributeName="opacity" values=".2;.5;.2" dur="2.4s" repeatCount="indefinite"/></circle><rect x="28" y="10" width="12" height="9" rx="3" fill="#475569"/><rect x="56" y="10" width="12" height="9" rx="3" fill="#475569"/><rect x="24" y="18" width="20" height="46" rx="9" fill="url(#sl)" stroke="#475569" stroke-width="3"/><rect x="52" y="18" width="20" height="46" rx="9" fill="url(#sl)" stroke="#475569" stroke-width="3"/><rect x="44" y="30" width="8" height="22" rx="3" fill="url(#au)" stroke="#8A5A14" stroke-width="2"/><path d="M28 66l6 20 6-20Z" fill="#F97316"><animate attributeName="opacity" values="1;.45;1" dur=".6s" repeatCount="indefinite"/></path><path d="M56 66l6 20 6-20Z" fill="#F97316"><animate attributeName="opacity" values=".45;1;.45" dur=".6s" repeatCount="indefinite"/></path><path d="M31 66l3 10 3-10Z" fill="#FDE047"/><path d="M59 66l3 10 3-10Z" fill="#FDE047"/></svg>