<svg xmlns="http://www.w3.org/2000/svg" viewBox="0 0 96 96"><defs><radialGradient id="lg"><stop offset="0" stop-color="#F5D76E"/><stop offset="1" stop-color="#F5D76E" stop-opacity="0"/></radialGradient><linearGradient id="au" x1="0" y1="0" x2="0" y2="1"><stop offset="0" stop-color="#FFE9A0"/><stop offset=".5" stop-color="#F0C64A"/><stop offset="1" stop-color="#C9922A"/></linearGradient><linearGradient id="pu" x1="0" y1="0" x2="0" y2="1"><stop offset="0" stop-color="#E9D5FF"/><stop offset=".5" stop-color="#A855F7"/><stop offset="1" stop-color="#6B21A8"/></linearGradient><linearGradient id="cy" x1="0" y1="0" x2="0" y2="1"><stop offset="0" stop-color="#A5F3FC"/><stop offset="1" stop-color="#0891B2"/></linearGradient><linearGradient id="pk" x1="0" y1="0" x2="0" y2="1"><stop offset="0" stop-color="#FBCFE8"/><stop offset="1" stop-color="#DB2777"/></linearGradient><linearGradient id="gr" x1="0" y1="0" x2="0" y2="1"><stop offset="0" stop-color="#BBF7D0"/><stop offset="1" stop-color="#15803D"/></linearGradient><linearGradient id="sl" x1="0" y1="0" x2="0" y2="1"><stop offset="0" stop-color="#F1F5F9"/><stop offset="1" stop-color="#94A3B8"/></linearGradient><linearGradient id="nv" x1="0" y1="0" x2="0" y2="1"><stop offset="0" stop-color="#334155"/><stop offset="1" stop-color="#0F172A"/></linearGradient></defs><circle cx="48" cy="48" r="40" fill="url(#lg)" opacity=".35"><animate attributeName="opacity" values=".2;.5;.2" dur="2.4s" repeatCount="indefinite"/></circle><circle cx="48" cy="48" r="30" fill="url(#cy)" stroke="#155E75" stroke-width="3"/><path d="M32 48c0-8 8-8 12 0s12 8 16 0-8-16-12-8-12 8-16 8Z" fill="#fff" opacity=".85"/><ellipse cx="38" cy="34" rx="9" ry="5" fill="#fff" opacity=".7" transform="rotate(-25 38 34)"/><circle cx="48" cy="48" r="36" fill="none" stroke="url(#pu)" stroke-width="3" stroke-dasharray="8 7"><animateTransform attributeName="transform" type="rotate" from="0 48 48" to="360 48 48" dur="12s" repeatCount="indefinite"/></circle></svg>