<svg xmlns="http://www.w3.org/2000/svg" viewBox="0 0 96 96"><defs><radialGradient id="lg"><stop offset="0" stop-color="#F5D76E"/><stop offset="1" stop-color="#F5D76E" stop-opacity="0"/></radialGradient><linearGradient id="au" x1="0" y1="0" x2="0" y2="1"><stop offset="0" stop-color="#FFE9A0"/><stop offset=".5" stop-color="#F0C64A"/><stop offset="1" stop-color="#C9922A"/></linearGradient><linearGradient id="pu" x1="0" y1="0" x2="0" y2="1"><stop offset="0" stop-color="#E9D5FF"/><stop offset=".5" stop-color="#A855F7"/><stop offset="1" stop-color="#6B21A8"/></linearGradient><linearGradient id="cy" x1="0" y1="0" x2="0" y2="1"><stop offset="0" stop-color="#A5F3FC"/><stop offset="1" stop-color="#0891B2"/></linearGradient><linearGradient id="pk" x1="0" y1="0" x2="0" y2="1"><stop offset="0" stop-color="#FBCFE8"/><stop offset="1" stop-color="#DB2777"/></linearGradient><linearGradient id="gr" x1="0" y1="0" x2="0" y2="1"><stop offset="0" stop-color="#BBF7D0"/><stop offset="1" stop-color="#15803D"/></linearGradient><linearGradient id="sl" x1="0" y1="0" x2="0" y2="1"><stop offset="0" stop-color="#F1F5F9"/><stop offset="1" stop-color="#94A3B8"/></linearGradient><linearGradient id="nv" x1="0" y1="0" x2="0" y2="1"><stop offset="0" stop-color="#334155"/><stop offset="1" stop-color="#0F172A"/></linearGradient></defs><rect x="44" y="16" width="8" height="12" fill="#64748B"/><circle cx="48" cy="12" r="6" fill="url(#pk)" stroke="#9D174D" stroke-width="2"/><rect x="26" y="28" width="44" height="42" rx="11" fill="url(#sl)" stroke="#475569" stroke-width="3"/><rect x="34" y="38" width="10" height="10" rx="2" fill="url(#cy)" stroke="#155E75" stroke-width="1.5"/><rect x="52" y="38" width="10" height="10" rx="2" fill="url(#cy)" stroke="#155E75" stroke-width="1.5"/><path d="M40 58q8 6 16 0" stroke="#475569" stroke-width="3" fill="none" stroke-linecap="round"/><rect x="14" y="38" width="8" height="18" rx="4" fill="#64748B"/><rect x="74" y="38" width="8" height="18" rx="4" fill="#64748B"/><rect x="30" y="70" width="14" height="14" rx="4" fill="url(#nv)"/><rect x="52" y="70" width="14" height="14" rx="4" fill="url(#nv)"/></svg>