<svg xmlns="http://www.w3.org/2000/svg" viewBox="0 0 96 96"><defs><radialGradient id="lg"><stop offset="0" stop-color="#F5D76E"/><stop offset="1" stop-color="#F5D76E" stop-opacity="0"/></radialGradient><linearGradient id="au" x1="0" y1="0" x2="0" y2="1"><stop offset="0" stop-color="#FFE9A0"/><stop offset=".5" stop-color="#F0C64A"/><stop offset="1" stop-color="#C9922A"/></linearGradient><linearGradient id="pu" x1="0" y1="0" x2="0" y2="1"><stop offset="0" stop-color="#E9D5FF"/><stop offset=".5" stop-color="#A855F7"/><stop offset="1" stop-color="#6B21A8"/></linearGradient><linearGradient id="cy" x1="0" y1="0" x2="0" y2="1"><stop offset="0" stop-color="#A5F3FC"/><stop offset="1" stop-color="#0891B2"/></linearGradient><linearGradient id="pk" x1="0" y1="0" x2="0" y2="1"><stop offset="0" stop-color="#FBCFE8"/><stop offset="1" stop-color="#DB2777"/></linearGradient><linearGradient id="gr" x1="0" y1="0" x2="0" y2="1"><stop offset="0" stop-color="#BBF7D0"/><stop offset="1" stop-color="#15803D"/></linearGradient><linearGradient id="sl" x1="0" y1="0" x2="0" y2="1"><stop offset="0" stop-color="#F1F5F9"/><stop offset="1" stop-color="#94A3B8"/></linearGradient><linearGradient id="nv" x1="0" y1="0" x2="0" y2="1"><stop offset="0" stop-color="#334155"/><stop offset="1" stop-color="#0F172A"/></linearGradient></defs><path d="M16 62c0-8 6-13 16-15l12-15c3 10 11 16 24 16 10 0 16 5 16 13v7H16Z" fill="url(#sl)" stroke="#475569" stroke-width="3" stroke-linejoin="round"/><rect x="14" y="66" width="70" height="11" rx="5" fill="url(#nv)"/><path d="M44 38l6 6M52 33l6 6" stroke="#fff" stroke-width="2.5" stroke-linecap="round"/><path d="M24 58l8-6 6 4 8-6" stroke="#12B5A5" stroke-width="3.5" fill="none" stroke-linecap="round" stroke-linejoin="round"/><path d="M6 48h12M4 56h10" stroke="#7EC8F5" stroke-width="3.5" stroke-linecap="round"/></svg>